<?xml version="1.0" encoding="UTF-8" standalone="no"?>
<!-- Generator: Adobe Illustrator 25.4.1, SVG Export Plug-In . SVG Version: 6.00 Build 0)  -->

<svg
   version="1.1"
   id="_x3C_Layer_x3E_"
   x="0px"
   y="0px"
   viewBox="0 0 325 67"
   xml:space="preserve"
   sodipodi:docname="logo.svg"
   width="325"
   height="67"
   inkscape:version="1.1.2 (b8e25be833, 2022-02-05)"
   xmlns:inkscape="http://www.inkscape.org/namespaces/inkscape"
   xmlns:sodipodi="http://sodipodi.sourceforge.net/DTD/sodipodi-0.dtd"
   xmlns="http://www.w3.org/2000/svg"
   xmlns:svg="http://www.w3.org/2000/svg"><defs
   id="defs40" /><sodipodi:namedview
   id="namedview38"
   pagecolor="#ffffff"
   bordercolor="#666666"
   borderopacity="1.0"
   inkscape:pageshadow="2"
   inkscape:pageopacity="0.0"
   inkscape:pagecheckerboard="0"
   showgrid="false"
   inkscape:zoom="2.2625"
   inkscape:cx="214.58564"
   inkscape:cy="100.1105"
   inkscape:window-width="1920"
   inkscape:window-height="991"
   inkscape:window-x="-9"
   inkscape:window-y="-9"
   inkscape:window-maximized="1"
   inkscape:current-layer="_x3C_Layer_x3E_" />
<style
   type="text/css"
   id="style2">
	.st0{fill:#CED8D1;}
	.st1{display:none;fill:url(#SVGID_1_);}
	.st2{opacity:0.8;}
	.st3{fill:#3B4A3F;}
</style>

<linearGradient
   id="SVGID_1_"
   gradientUnits="userSpaceOnUse"
   x1="1457.4576"
   y1="720.81207"
   x2="2648.5457"
   y2="1911.9001">
	<stop
   offset="0"
   style="stop-color:#FF47A6"
   id="stop6" />
	<stop
   offset="1"
   style="stop-color:#481FFF"
   id="stop8" />
</linearGradient>
<path
   class="st1"
   d="m 2030.66,537.73 c 0,-89.12 -72.51,-161.63 -161.63,-161.63 -89.12,0 -161.64,72.51 -161.64,161.63 0,89.12 72.51,161.63 161.64,161.63 89.13,0 161.63,-72.51 161.63,-161.63 z m -161.64,137.03 c -75.56,0 -137.03,-61.48 -137.03,-137.03 0,-75.55 61.47,-137.03 137.03,-137.03 75.56,0 137.03,61.48 137.03,137.03 0,75.55 -61.47,137.03 -137.03,137.03 z m -180.46,1010.33 c 26.58,0 51.3,-12.01 68.13,-33.72 20,-25.79 23.95,-58.98 10.56,-88.75 L 1640,1278.82 c 14.33,-12.27 26.24,-26.79 35.47,-43.29 l 70.79,-125.98 29.8,56.45 c 7.62,14.43 20.15,25.56 35.4,31.48 0.55,0.29 1.12,0.54 1.71,0.74 l 274.18,94.2 c 7.23,2.48 14.68,3.72 22.1,3.72 10.18,0 20.3,-2.32 29.72,-6.92 16.28,-7.95 28.49,-21.77 34.37,-38.91 5.89,-17.14 4.75,-35.54 -3.21,-51.82 -7.95,-16.28 -21.77,-28.49 -38.91,-34.37 l -247.92,-85.18 -58.13,-110.12 20.5,-36.49 c 43.43,-77.38 15.83,-175.72 -61.53,-219.23 -37.49,-21.07 -80.93,-26.3 -122.34,-14.7 -41.4,11.6 -75.81,38.64 -96.9,76.15 l -170.42,303.27 c -43.43,77.37 -15.83,175.72 61.56,219.25 6.18,3.45 12.88,6.58 20.36,9.48 l 88.73,196 -247.65,-43.94 c -23.31,-4.14 -47.33,1.92 -65.9,16.62 -18.57,14.7 -29.96,36.69 -31.28,60.34 -2.37,42.47 27.52,79.61 69.52,86.38 l 383.11,61.79 c 5.2,0.91 10.35,1.35 15.43,1.35 z m -443.47,-148.14 c 0.93,-16.62 8.94,-32.08 21.99,-42.41 13.05,-10.33 29.93,-14.55 46.32,-11.68 l 270.63,48.02 c 4.48,0.81 9.06,-0.95 11.86,-4.56 2.8,-3.6 3.38,-8.47 1.49,-12.62 l -100.46,-221.92 c -1.37,-3.04 -3.91,-5.37 -7.04,-6.5 -8.23,-2.96 -15.3,-6.13 -21.6,-9.64 -65.54,-36.86 -88.93,-120.19 -52.14,-185.74 l 170.42,-303.26 c 17.87,-31.77 47.02,-54.68 82.09,-64.51 35.07,-9.85 71.88,-5.42 103.64,12.45 65.54,36.86 88.93,120.18 52.14,185.72 l -12.72,22.64 -51.01,-96.64 c -3.17,-6.01 -10.62,-8.32 -16.62,-5.13 -6.01,3.17 -8.31,10.61 -5.14,16.62 l 125.08,236.97 c 1.46,2.77 3.92,4.88 6.88,5.89 l 252.53,86.77 c 10.92,3.75 19.73,11.52 24.79,21.9 5.07,10.37 5.79,22.1 2.04,33.02 -3.75,10.92 -11.53,19.73 -21.91,24.8 -10.37,5.08 -22.1,5.8 -33.02,2.03 l -272.75,-93.7 c -0.4,-0.19 -0.8,-0.37 -1.22,-0.52 -10.19,-3.68 -18.55,-10.92 -23.56,-20.41 L 1662.47,898.15 c -3.17,-6.01 -10.61,-8.31 -16.62,-5.13 -6.01,3.17 -8.31,10.61 -5.14,16.62 l 91.87,174.05 -78.58,139.84 c -9.18,16.39 -21.47,30.48 -36.54,41.88 -4.57,3.46 -6.15,9.61 -3.8,14.84 l 131.14,292.47 c 9.6,21.34 6.77,45.12 -7.56,63.61 -14.37,18.53 -36.77,27.18 -60.04,23.19 l -383.25,-61.8 c -29.52,-4.8 -50.53,-30.91 -48.86,-60.77 z M 2523.2,1056.42 c 82.41,0 149.45,-67.04 149.45,-149.45 0,-82.41 -67.04,-149.45 -149.45,-149.45 -82.41,0 -149.45,67.04 -149.45,149.45 0,82.41 67.04,149.45 149.45,149.45 z m 0,-274.31 c 68.84,0 124.85,56.01 124.85,124.85 0,68.84 -56.01,124.85 -124.85,124.85 -68.84,0 -124.85,-56.01 -124.85,-124.85 0,-68.84 56.01,-124.85 124.85,-124.85 z m 307.74,789.05 h -154.52 l 52.38,-102.61 c 25.92,-9.3 46.82,-27.97 58.99,-52.75 12.41,-25.28 14.24,-53.88 5.14,-80.52 l -70.36,-206.1 c -18.78,-55 -78.81,-84.49 -133.82,-65.71 -55.01,18.79 -84.48,78.81 -65.71,133.82 l 3.92,11.48 -62.3,81.65 H 2278.1 c -31.65,0 -57.41,25.76 -57.41,57.41 0,31.65 25.75,57.41 57.41,57.41 h 214.97 c 17.79,0 34.85,-8.44 45.64,-22.58 l 32.89,-43.11 21.8,63.86 c 2.6,7.63 6.05,14.9 10.27,21.68 l -92.83,181.86 c -10.31,20.19 -9.36,44.75 2.48,64.09 11.85,19.33 33.28,31.35 55.95,31.35 h 261.67 c 36.18,0 65.61,-29.43 65.61,-65.61 0,-36.18 -29.44,-65.62 -65.61,-65.62 z m 0,106.61 h -261.67 c -14.17,0 -27.57,-7.5 -34.97,-19.59 -7.4,-12.09 -7.99,-27.44 -1.55,-40.06 l 96.12,-188.31 c 2.11,-4.12 1.72,-9.09 -1.02,-12.84 -4.77,-6.54 -8.53,-13.78 -11.17,-21.52 l -29.24,-85.67 c -1.47,-4.3 -5.18,-7.44 -9.67,-8.17 -0.66,-0.1 -1.32,-0.16 -1.98,-0.16 -3.8,0 -7.43,1.76 -9.78,4.84 l -46.87,61.44 c -6.16,8.08 -15.91,12.9 -26.08,12.9 h -214.97 c -18.09,0 -32.8,-14.71 -32.8,-32.8 0,-18.09 14.72,-32.8 32.8,-32.8 h 192.65 c 3.84,0 7.45,-1.79 9.78,-4.84 l 69.98,-91.71 c 2.49,-3.27 3.19,-7.55 1.86,-11.44 l -6.04,-17.69 c -14.4,-42.17 8.2,-88.19 50.37,-102.59 42.17,-14.42 88.19,8.2 102.59,50.37 l 70.36,206.1 c 6.98,20.43 5.58,42.35 -3.94,61.73 -9.51,19.37 -26,33.89 -46.42,40.85 l -2.62,0.74 c -3.21,0.96 -5.89,3.2 -7.42,6.19 l -63.87,125.13 c -1.95,3.81 -1.77,8.36 0.46,12.01 2.24,3.65 6.21,5.88 10.49,5.88 h 174.61 c 22.61,0 41.01,18.4 41.01,41.01 0,22.61 -18.39,41 -41,41 z m -735.8,-558.18 c -0.06,6.79 5.39,12.35 12.19,12.41 0.04,0 0.08,0 0.12,0 6.74,0 12.24,-5.43 12.3,-12.19 0.21,-22.18 0.35,-39.2 0.44,-52.63 7.3,-8.08 27.65,-29.58 48.67,-42.82 8.51,4.27 24.1,9.97 47.01,9.97 6.72,0 14.06,-0.5 22.01,-1.66 62.91,-9.21 92.34,-98.2 93.56,-101.99 1.24,-3.84 0.52,-8.04 -1.93,-11.25 -2.45,-3.2 -6.29,-5 -10.35,-4.81 -1.77,0.08 -43.98,2.14 -97.1,11.67 -51.06,9.17 -64.98,50.56 -65.69,76.86 -13.28,8.29 -26.01,19.17 -36.15,28.79 -0.09,-8.56 -0.3,-13.21 -0.64,-17.23 l 0.04,-14.76 c 0.03,-6.53 0.06,-13.04 0.04,-19.61 -0.07,-23.55 4.05,-52.22 6.99,-69.69 15.04,-1.7 41.65,-9.7 66.43,-42.5 35.59,-47.13 16.93,-122.1 16.12,-125.27 -0.83,-3.26 -2.97,-6.03 -5.9,-7.68 -2.93,-1.65 -6.41,-2.03 -9.63,-1.03 -3.8,1.16 -93.45,29.18 -124.3,81.78 -9.31,15.88 -11.46,31.66 -6.4,46.89 7.22,21.7 27.66,35.91 39.61,42.62 -3.38,19.74 -7.6,49.49 -7.53,74.95 0,1.25 -0.01,2.48 -0.01,3.72 -7.62,-6.25 -15.66,-11.4 -23.1,-14.63 -3.37,-22.21 -19.91,-55.29 -66.68,-63.69 -50.61,-9.09 -90.84,-11.04 -92.53,-11.12 -4.02,-0.11 -7.9,1.61 -10.35,4.81 -2.45,3.21 -3.17,7.42 -1.93,11.25 1.17,3.62 29.3,88.68 89.55,97.51 5.68,0.83 11.09,1.2 16.23,1.2 27.68,0 47.09,-10.72 56.39,-17.26 9.35,4.25 23.77,15.09 32.63,27.31 0.6,10.02 0.55,28.98 -0.11,100.08 z M 2226.4,950.51 c 30.33,-5.45 57.4,-8.39 74.59,-9.91 -10.66,23.49 -33.27,62.84 -66.68,67.73 -28.15,4.14 -45.55,-1.6 -53.32,-5.31 0.57,-13.89 6.26,-45.48 45.41,-52.51 z m -232.83,33.4 c -31.11,-4.56 -52.35,-40.88 -62.62,-63.22 16.39,1.46 41.69,4.26 69.96,9.34 36.64,6.58 44.81,31.26 46.61,42.77 -8,5.43 -26.64,15.12 -53.95,11.11 z m 92.73,-128.92 c -2.74,-8.31 -1.34,-17.01 4.3,-26.61 19.74,-33.65 72.61,-56.81 97.29,-66.13 3.23,21.37 6.21,63.72 -14.44,91.05 -23.94,31.71 -47.96,33.48 -54.09,33.2 -8.87,-4.19 -27.93,-15.94 -33.06,-31.51 z m 139.48,793.05 9.11,-115.8 h 15.53 c 6.79,0 12.3,-5.51 12.3,-12.3 v -72.64 c 0,-6.79 -5.51,-12.3 -12.3,-12.3 h -130.36 c -0.01,-17.56 -0.03,-29.86 -0.06,-45.96 l -0.1,-56.12 c -0.01,-6.79 -5.51,-12.29 -12.3,-12.29 0,0 -0.01,0 -0.02,0 -6.79,0.01 -12.3,5.53 -12.29,12.32 l 0.1,56.14 c 0.03,16.07 0.06,28.38 0.06,45.91 h -130.18 c -6.79,0 -12.3,5.51 -12.3,12.3 v 72.64 c 0,6.79 5.51,12.3 12.3,12.3 H 1983 l 12.31,117.32 c 3.16,30.11 28.38,52.82 58.65,52.82 h 113.02 c 30.58,0 56.4,-23.87 58.8,-54.34 z m -248.2,-188.44 h 129.79 c 0.13,0.01 0.26,0.04 0.4,0.04 0.14,0 0.26,-0.03 0.4,-0.04 h 129.96 v 48.04 h -14.6 -229.44 -16.51 z m 42.21,187.4 -12.04,-114.76 h 202.47 l -8.96,113.86 c -1.4,17.76 -16.45,31.67 -34.26,31.67 h -113.02 c -17.65,0 -32.35,-13.23 -34.19,-30.77 z"
   id="path11" />
<g
   id="g870"
   transform="scale(1.675)"><path
     class="st0"
     d="M 23.28,0 H 16.73 C 7.49,0 0,7.49 0,16.72 v 6.55 C 0,32.51 7.49,40 16.72,40 h 6.55 C 32.51,40 40,32.51 40,23.28 V 16.73 C 40,7.49 32.51,0 23.28,0 Z"
     id="path4" /><g
     class="st2"
     id="g35">
	<path
   class="st3"
   d="m 8.46,19.98 c 0,-0.94 0,-1.87 0,-2.81 0,-0.29 -0.09,-0.55 -0.3,-0.76 -0.62,-0.61 -0.91,-1.55 -0.5,-2.36 1.69,-3.01 8.14,-2.98 10.61,-0.95 0.11,0.09 0.21,0.18 0.17,0.35 -0.04,0.18 -0.24,0.26 -0.39,0.16 -0.14,-0.09 -0.27,-0.21 -0.41,-0.3 -2.01,-1.23 -4.57,-1.34 -6.81,-0.76 -1.07,0.31 -2.58,0.94 -2.8,2.17 -0.09,0.57 0.28,1.05 0.64,1.45 0.24,0.29 0.34,0.64 0.34,1.01 0,1.84 0.01,3.67 0,5.51 0,0.37 0.23,0.62 0.62,0.62 1.63,-0.01 3.25,0 4.88,0 0.45,-0.02 0.39,0.59 -0.03,0.53 -1.64,0 -3.29,0 -4.93,0 -0.63,0 -1.08,-0.52 -1.07,-1.08 -0.01,-0.94 -0.02,-1.86 -0.02,-2.78 0,0 0,0 0,0 z"
   id="path13" />
	<path
   class="st3"
   d="m 13.7,19.12 c -0.03,-1.41 0.48,-2.61 1.81,-3.06 0.71,-0.25 1.4,-0.03 2.08,0.2 0.13,0.04 0.15,0.03 0.15,-0.11 0.02,-0.71 0.26,-1.34 0.78,-1.84 0.06,-0.06 0.12,-0.11 0.19,-0.16 0.1,-0.08 0.28,-0.05 0.36,0.05 0.08,0.1 0.07,0.29 -0.04,0.37 -0.52,0.39 -0.73,1.01 -0.76,1.63 -0.01,0.07 0.02,0.09 0.09,0.07 0.6,-0.16 1.2,-0.43 1.84,-0.31 0.28,0.05 0.55,0.14 0.8,0.29 0.34,0.21 0.1,0.66 -0.27,0.46 -0.27,-0.15 -0.56,-0.25 -0.87,-0.25 -0.26,0 -0.51,0.08 -0.76,0.15 -0.17,0.05 -0.35,0.1 -0.52,0.16 -0.41,0.13 -0.82,0.1 -1.23,-0.03 -0.33,-0.11 -0.66,-0.23 -1.02,-0.27 -0.31,-0.03 -0.59,0.04 -0.86,0.17 -0.77,0.33 -1.16,1.14 -1.21,1.94 -0.11,1.61 0.47,3.57 1.95,4.4 0.31,0.17 0.65,0.29 1.01,0.3 0.17,0 0.33,-0.04 0.48,-0.12 0.22,-0.11 0.43,-0.11 0.65,0 0.14,0.07 0.29,0.1 0.45,0.12 0.41,0.03 0.34,0.57 -0.05,0.53 -0.22,-0.01 -0.42,-0.06 -0.62,-0.16 -0.07,-0.03 -0.13,-0.04 -0.2,-0.01 -0.78,0.39 -1.69,0.04 -2.36,-0.43 -1.26,-0.89 -1.82,-2.63 -1.87,-4.09 z"
   id="path15" />
	<path
   class="st3"
   d="m 28.05,17.49 c -0.41,-0.18 -0.87,-0.19 -1.32,-0.16 -0.86,0.06 -1.66,0.5 -2.21,1.15 -0.06,0.07 -0.09,0.1 -0.17,0 -2.12,-2.51 -5.97,-0.81 -5.43,2.5 0.12,1.24 0.67,2.42 1.48,3.37 0.19,0.23 0.38,0.45 0.61,0.64 v 0 c 0.93,0.9 2.06,1.55 3.25,2.06 0.11,0.05 0.22,0.05 0.33,0 1.84,-0.78 3.59,-1.99 4.6,-3.76 1.02,-1.79 1.33,-4.74 -0.91,-5.73 v 0 m -0.25,0.52 c 0,0 0,0 0,0 0.01,0.03 0.04,0.04 0.07,0.06 1.36,0.7 1.46,2.2 1.11,3.53 -0.47,1.86 -1.94,3.28 -3.57,4.21 -0.35,0.2 -0.71,0.38 -1.08,0.55 -0.1,0.05 -0.19,0.04 -0.29,-0.01 -1.02,-0.48 -2,-1.06 -2.83,-1.83 -0.03,-0.02 -0.05,-0.05 -0.08,-0.05 0,0 0,-0.01 0,-0.01 -0.23,-0.29 -0.51,-0.55 -0.73,-0.85 -0.68,-0.87 -1.07,-1.93 -1.15,-3.02 -0.12,-1.09 0.42,-2.21 1.48,-2.6 1.11,-0.47 2.43,0.01 3.08,1 0.14,0.23 0.34,0.47 0.61,0.24 0.16,-0.16 0.27,-0.37 0.42,-0.53 0.54,-0.59 1.34,-0.93 2.15,-0.87 0.16,0.02 0.32,0.06 0.48,0.09 0.04,0.01 1.58,0.58 0.17,0.01"
   id="path17" />
	<path
   class="st3"
   d="m 15.22,18.97 c -0.03,-0.64 0.18,-1.44 0.89,-1.6 0.12,-0.03 0.28,0.05 0.32,0.17 0.04,0.13 -0.02,0.31 -0.14,0.34 -0.41,0.11 -0.5,0.44 -0.52,0.78 -0.07,0.87 0.12,1.69 0.55,2.45 0.04,0.08 0.1,0.15 0.15,0.22 0.1,0.13 0.1,0.31 -0.01,0.4 -0.12,0.1 -0.29,0.08 -0.4,-0.05 -0.58,-0.76 -0.84,-1.77 -0.84,-2.71 z"
   id="path19" />
	<path
   class="st3"
   d="m 19.19,26.04 c -0.82,-0.25 -1.65,-0.42 -2.48,-0.65 -0.55,-0.15 -1.11,-0.25 -1.69,-0.16 -0.33,0.05 -0.64,0.13 -0.94,0.28 -0.36,0.18 -0.72,0.34 -1.08,0.51 -0.49,0.23 -0.99,0.46 -1.48,0.7 -0.34,0.17 -0.69,0.31 -1.08,0.28 -0.11,-0.01 -0.21,0.01 -0.32,0.02 C 9.66,27.07 9.2,27.08 8.74,27.11 8.5,27.12 8.25,27.14 8,27.17 c -0.16,0.02 -0.26,0.12 -0.25,0.27 0.01,0.14 0.12,0.25 0.28,0.25 0.27,-0.01 0.53,-0.03 0.8,-0.04 0.62,-0.02 1.24,-0.09 1.86,-0.11 0.54,-0.02 1,-0.31 1.48,-0.53 0.61,-0.29 1.23,-0.58 1.84,-0.88 0.37,-0.18 0.74,-0.34 1.15,-0.38 0.18,-0.02 0.36,-0.05 0.54,-0.02 0.73,0.11 1.43,0.34 2.14,0.51 0.39,0.09 0.78,0.19 1.16,0.29 0,0 0,0 0,0 0,0 0,0 0,0 0.8,0.23 1.62,0.41 2.43,0.63 0.3,0.08 0.59,0.16 0.83,0.39 0.31,0.3 0.45,0.81 0.32,1.21 -0.18,0.59 -0.78,0.97 -1.44,0.85 -1.14,-0.2 -2.29,-0.35 -3.43,-0.54 -0.15,-0.02 -0.29,0.07 -0.31,0.2 -0.03,0.17 0.05,0.29 0.22,0.32 0.34,0.06 0.67,0.11 1.01,0.16 0.84,0.13 1.69,0.27 2.53,0.4 0.77,0.12 1.52,-0.27 1.83,-0.99 0.1,-0.23 0.24,-0.32 0.46,-0.37 0.25,-0.06 0.51,-0.13 0.75,-0.22 0,0 0,0 0,0 0.02,-0.01 0.04,-0.02 0.06,-0.03 0.09,-0.07 0.21,-0.06 0.32,-0.08 h 0.01 0.01 c 0.02,-0.08 0.08,-0.06 0.13,-0.04 1.33,-0.37 2.65,-0.77 3.98,-1.15 0.62,-0.18 1.25,-0.36 1.87,-0.55 0.72,-0.22 1.48,0.4 1.39,1.15 -0.05,0.4 -0.26,0.7 -0.62,0.87 -2.71,1.24 -5.44,2.45 -8.16,3.68 -0.68,0.31 -1.36,0.61 -2.04,0.93 -0.33,0.15 -0.67,0.26 -1.03,0.21 -1,-0.14 -1.98,-0.39 -2.98,-0.53 -1.43,-0.32 -2.89,-0.53 -4.32,-0.81 -0.48,-0.09 -0.96,-0.15 -1.45,-0.05 -1.13,0.23 -2.26,0.47 -3.4,0.71 -0.17,0.04 -0.28,0.18 -0.24,0.33 0.03,0.15 0.19,0.23 0.36,0.19 0.1,-0.02 0.21,-0.04 0.31,-0.07 0.9,-0.19 1.79,-0.37 2.69,-0.56 0.34,-0.07 0.68,-0.15 1.03,-0.12 1.52,0.24 3.03,0.55 4.55,0.82 0,0 0,0 0,0 v 0 c 1.06,0.2 2.12,0.4 3.18,0.59 0.87,0.18 1.65,-0.29 2.41,-0.63 1.39,-0.63 2.78,-1.26 4.17,-1.89 1.23,-0.56 2.45,-1.11 3.68,-1.66 0.47,-0.21 0.93,-0.42 1.39,-0.63 0.41,-0.19 0.71,-0.48 0.88,-0.91 0.48,-1.16 -0.57,-2.45 -1.82,-2.18 -0.41,0.08 -0.81,0.22 -1.22,0.34 -1.46,0.42 -2.92,0.85 -4.37,1.27 -0.12,0.02 -0.24,0.06 -0.36,0.11 -0.06,0 -0.11,0.02 -0.16,0.05 -0.37,0.08 -0.72,0.21 -1.09,0.3 -0.24,0.07 -0.21,0.11 -0.27,-0.17 -0.11,-0.53 -0.41,-0.93 -0.89,-1.19 -0.26,-0.14 -0.55,-0.19 -0.83,-0.27 -0.65,-0.18 -1.31,-0.34 -1.96,-0.5"
   id="path21" />
	<path
   class="st3"
   d="m 24.61,28.44 c 0.01,-0.08 -0.05,-0.12 -0.08,-0.18 0.08,0.04 0.17,0.06 0.22,0.14 -0.04,0.03 -0.09,0.04 -0.14,0.04 z"
   id="path23" />
	<path
   class="st3"
   d="m 24.28,28.53 c 0,-0.04 0.01,-0.08 0.06,-0.08 0.09,0.01 0.17,-0.04 0.26,0 -0.11,0.03 -0.21,0.08 -0.32,0.08 z"
   id="path25" />
	<path
   class="st3"
   d="m 30.9,20.11 c 0.07,0.06 0.1,0.12 0,0.18 0,-0.06 0,-0.12 0,-0.18 z"
   id="path27" />
	<path
   class="st3"
   d="m 31.43,19.8 c 0,0 0,0 0,0 0.01,-2.64 0,-5.29 0,-7.93 0,-0.08 0,-0.15 -0.05,-0.22 -0.25,-0.34 -0.47,-0.71 -0.69,-1.07 0,0 0,0 0,0 C 30.2,9.75 29.68,8.94 29.17,8.12 29.06,7.95 28.99,7.79 29,7.57 29.02,7.3 29.01,7.04 29,6.77 28.99,6.28 28.62,5.91 28.13,5.91 c -1.16,0 -2.32,0 -3.48,0 -0.52,0 -0.89,0.37 -0.89,0.89 0,0.3 0,0.59 0,0.89 0,0.11 -0.02,0.2 -0.08,0.29 -0.31,0.5 -0.62,0.99 -0.92,1.49 -0.43,0.7 -0.86,1.4 -1.29,2.1 -0.07,0.11 -0.11,0.22 -0.11,0.34 0.02,1.22 -0.03,2.44 0.02,3.65 0.07,0.28 0.5,0.26 0.52,-0.04 0.03,-0.53 -0.01,-1.07 0,-1.6 0,-0.56 0,-1.12 0.01,-1.69 0,-0.17 0,-0.17 0.17,-0.17 1.31,0 2.61,0 3.92,0 0.16,0 0.16,0 0.16,0.17 0,0.62 0,1.24 0,1.85 0,0.78 0,1.55 0,2.33 0,0.16 0.11,0.27 0.26,0.28 0.15,0 0.27,-0.12 0.27,-0.27 0,-0.25 0,-0.5 0,-0.75 0,0 0,0 0,0 0.01,-1.15 0.01,-2.31 0,-3.46 0,-0.11 0.03,-0.14 0.14,-0.14 0.18,0.01 0.36,0 0.54,0 0.71,0 1.41,0 2.12,0 0,0 0,0 0,0 0.41,0 0.83,0 1.24,0 0.16,0 0.16,0 0.16,0.16 0,2.57 0,5.14 0,7.71 0,0.06 0,0.12 0,0.18 0.03,0.06 0.05,0.12 0,0.18 -0.01,0.89 0,1.78 -0.01,2.67 0,0.45 -0.46,0.32 -0.77,0.34 -0.37,-0.01 -0.37,0.54 0.01,0.52 0.16,0 0.32,0 0.48,0 0.46,0 0.82,-0.36 0.82,-0.82 0.02,-1.08 0.01,-2.15 0.01,-3.21 z M 24.46,7.66 c -0.16,0 -0.16,0 -0.16,-0.15 0,-0.22 0,-0.44 0,-0.67 0,-0.27 0.14,-0.4 0.4,-0.4 1.13,0 2.26,0 3.39,0 0.26,0 0.39,0.13 0.39,0.39 0,0.23 0,0.47 0,0.7 0,0.11 -0.04,0.13 -0.14,0.13 m -2.43,3.85 c -0.03,0.05 -0.11,0.02 -0.17,0.02 -1.2,0 -2.4,0.02 -3.6,0 0.62,-1.01 1.22,-1.99 1.85,-2.99 0.05,-0.09 0.08,-0.06 0.12,0 0.58,0.94 1.16,1.87 1.74,2.81 0.02,0.05 0.08,0.11 0.06,0.16 z m 4.69,-0.02 c 0.11,-0.02 -0.12,-0.02 -0.18,-0.02 -1.2,0 -2.39,0 -3.59,0 -0.15,0 -0.25,-0.05 -0.33,-0.18 -0.55,-0.91 -1.12,-1.81 -1.68,-2.72 -0.07,-0.13 -0.29,-0.34 0,-0.32 1.18,0 2.37,0 3.55,0 0.13,0 0.22,0.04 0.29,0.16"
   id="path29" />
	<path
   class="st3"
   d="m 11.83,14.43 c -1.35,0.07 -1.37,2.05 0.02,2.12 0.6,0.01 1.07,-0.47 1.07,-1.07 0.01,-0.59 -0.48,-1.07 -1.09,-1.05 z m 0.03,1.59 c -0.28,0 -0.52,-0.24 -0.52,-0.53 0,-0.29 0.24,-0.54 0.52,-0.53 0.32,0.01 0.53,0.26 0.52,0.54 0.01,0.28 -0.24,0.52 -0.52,0.52 z"
   id="path31" />
	<path
   class="st3"
   d="m 11.46,20.13 c -0.6,-0.01 -1.09,0.46 -1.09,1.05 0,0.6 0.48,1.06 1.04,1.06 0.62,0.01 1.06,-0.47 1.08,-1.05 0.02,-0.57 -0.46,-1.05 -1.03,-1.06 z m -0.03,1.58 c -0.29,0 -0.53,-0.23 -0.53,-0.52 0.02,-0.7 1.05,-0.7 1.05,0.01 0,0.32 -0.25,0.51 -0.52,0.51 z"
   id="path33" />
</g></g>
<text
   xml:space="preserve"
   style="font-style:normal;font-variant:normal;font-weight:normal;font-stretch:normal;font-size:33.3333px;line-height:1.25;font-family:'Helvetica Inserat LT Std';-inkscape-font-specification:'Helvetica Inserat LT Std';text-align:center;letter-spacing:-0.5px;text-anchor:middle;fill:#000000;fill-opacity:1;stroke:none"
   x="204.62309"
   y="42.608658"
   id="text2942"><tspan
     sodipodi:role="line"
     x="204.37309"
     y="42.608658"
     style="font-style:normal;font-variant:normal;font-weight:600;font-stretch:normal;font-size:33.3333px;font-family:Inter;-inkscape-font-specification:'Inter Semi-Bold';text-align:center;text-anchor:middle;fill:#3b4a3f;fill-opacity:1"
     id="tspan57472">Recycling Lives</tspan></text></svg>
